<?xml version="1.0" standalone="no"?>
<!DOCTYPE svg PUBLIC "-//W3C//DTD SVG 20010904//EN"
 "http://www.w3.org/TR/2001/REC-SVG-20010904/DTD/svg10.dtd">
<svg version="1.0" xmlns="http://www.w3.org/2000/svg"
 width="177.000000pt" height="180.000000pt" viewBox="0 0 177.000000 180.000000"
 preserveAspectRatio="xMidYMid meet">

<g transform="translate(0.000000,180.000000) scale(0.100000,-0.100000)"
fill="#000000" stroke="none">
<path d="M326 1678 l-64 -78 23 -62 c29 -81 45 -180 48 -295 l2 -93 553 0 552
0 0 86 c0 106 20 187 69 281 l38 72 -84 83 -84 83 -494 0 -495 0 -64 -77z
m280 -71 c8 -26 -2 -32 -21 -13 -25 25 -45 20 -45 -11 0 -21 3 -24 12 -15 19
19 28 14 28 -13 0 -14 -4 -25 -10 -25 -5 0 -10 5 -10 11 0 5 -4 7 -10 4 -5 -3
-10 -15 -10 -26 0 -24 27 -25 52 -2 15 13 18 14 18 2 0 -8 -5 -20 -12 -27 -14
-14 -108 -16 -108 -2 0 6 5 10 10 10 6 0 10 25 10 55 0 32 -4 55 -11 55 -5 0
-8 4 -5 9 3 5 28 8 56 8 39 -1 51 -6 56 -20z m205 1 c14 -27 3 -35 -19 -15
-25 23 -42 21 -42 -4 0 -16 4 -19 20 -14 17 5 20 2 20 -20 0 -22 -3 -25 -20
-20 -16 5 -20 2 -20 -14 0 -25 17 -27 48 -5 22 15 27 9 16 -20 -5 -12 -20 -16
-60 -16 -50 0 -68 10 -44 25 13 8 13 92 0 100 -21 13 3 25 46 23 33 -1 48 -6
55 -20z m189 3 c12 -24 -3 -36 -20 -16 -15 18 -43 20 -38 3 3 -7 14 -18 25
-23 55 -28 70 -65 34 -85 -40 -21 -90 -5 -91 28 0 10 5 9 22 -2 25 -18 58 -21
58 -6 0 5 -18 19 -40 30 -42 21 -53 53 -28 78 19 19 66 15 78 -7z m221 -3 c13
-25 6 -34 -11 -13 -22 27 -30 16 -30 -40 0 -30 5 -55 10 -55 6 0 10 -4 10 -10
0 -12 -67 -13 -74 -1 -3 5 1 11 9 15 11 4 15 20 15 57 l0 51 -25 -16 c-19 -13
-25 -13 -25 -3 0 23 20 34 66 35 34 0 47 -4 55 -20z m-551 -122 c-13 -13 -35
7 -25 24 5 8 11 8 21 -1 10 -8 12 -15 4 -23z m210 8 c0 -8 -7 -14 -15 -14 -15
0 -21 21 -9 33 10 9 24 -2 24 -19z m190 -8 c-13 -13 -35 7 -25 24 5 8 11 8 21
-1 10 -8 12 -15 4 -23z m190 9 c0 -8 -7 -15 -15 -15 -8 0 -15 7 -15 15 0 8 7
15 15 15 8 0 15 -7 15 -15z m-492 -154 c15 -34 16 -35 20 -11 2 13 -1 26 -7
28 -22 7 -10 19 19 19 17 0 30 -4 30 -9 0 -4 -4 -8 -10 -8 -5 0 -10 -28 -12
-62 -2 -35 -7 -62 -13 -62 -5 1 -21 23 -35 50 l-25 49 -3 -35 c-3 -24 2 -38
14 -47 10 -7 14 -13 8 -14 -5 0 -16 -2 -25 -4 -9 -1 -23 1 -30 6 -10 6 -11 9
-1 9 8 0 12 18 12 55 0 32 -4 55 -11 55 -5 0 -8 4 -5 8 2 4 17 8 32 8 21 0 30
-7 42 -35z m130 30 c8 -4 12 -19 10 -32 -2 -19 -9 -24 -33 -24 -33 0 -45 25
-25 50 14 17 29 19 48 6z m128 -24 c5 -16 -2 -28 -32 -54 -40 -33 -29 -47 14
-17 20 14 22 14 22 -4 0 -27 -19 -39 -59 -38 -45 1 -48 17 -12 59 38 43 40 61
6 54 -33 -6 -28 15 6 24 32 8 47 1 55 -24z"/>
<path d="M870 1346 c0 -14 5 -26 10 -26 6 0 10 9 10 19 0 11 -4 23 -10 26 -6
4 -10 -5 -10 -19z"/>
<path d="M305 975 c-32 -169 -29 -210 17 -280 52 -79 164 -149 366 -231 48
-19 106 -46 129 -59 l43 -24 0 370 0 369 -263 0 -264 0 -28 -145z m378 0 c16
-33 20 -35 66 -35 45 0 50 -2 61 -31 11 -25 11 -36 -2 -62 -13 -28 -13 -36 -1
-66 11 -27 12 -40 2 -62 -10 -26 -16 -29 -60 -29 -46 0 -50 -2 -66 -35 -16
-33 -20 -35 -63 -35 -43 0 -47 2 -63 36 -16 33 -20 35 -59 32 -38 -2 -44 0
-61 29 -17 30 -17 34 -3 55 20 28 20 45 1 81 -12 24 -12 31 3 57 14 25 23 30
57 30 34 0 43 5 64 35 21 31 29 35 65 35 38 0 44 -3 59 -35z"/>
<path d="M566 951 c-4 -5 -2 -12 3 -15 5 -4 12 -2 15 3 4 5 2 12 -3 15 -5 4
-12 2 -15 -3z"/>
<path d="M775 890 c-3 -5 -1 -10 4 -10 6 0 11 5 11 10 0 6 -2 10 -4 10 -3 0
-8 -4 -11 -10z"/>
<path d="M732 859 c2 -7 10 -15 17 -17 8 -3 12 1 9 9 -2 7 -10 15 -17 17 -8 3
-12 -1 -9 -9z"/>
<path d="M460 849 c0 -5 5 -7 10 -4 6 3 10 8 10 11 0 2 -4 4 -10 4 -5 0 -10
-5 -10 -11z"/>
<path d="M602 828 c-7 -7 -12 -16 -12 -20 0 -15 15 -8 28 12 13 22 3 27 -16 8z"/>
<path d="M700 787 c0 -8 6 -14 13 -14 8 0 14 6 14 14 0 7 -6 13 -14 13 -7 0
-13 -6 -13 -13z"/>
<path d="M570 776 c0 -9 7 -16 16 -16 17 0 14 22 -4 28 -7 2 -12 -3 -12 -12z"/>
<path d="M766 775 c4 -8 7 -15 9 -15 2 0 5 7 9 15 3 9 0 15 -9 15 -9 0 -12 -6
-9 -15z"/>
<path d="M716 723 c-6 -14 -5 -15 5 -6 7 7 10 15 7 18 -3 3 -9 -2 -12 -12z"/>
<path d="M908 750 c-2 -204 -2 -370 0 -370 1 0 20 12 41 26 22 14 103 52 181
84 169 70 241 111 286 166 67 81 78 163 47 357 l-17 107 -268 0 -268 0 -2
-370z m110 153 c14 -32 17 -66 3 -44 -6 9 -11 10 -15 2 -12 -19 -26 -12 -26
14 0 14 4 25 10 25 5 0 7 7 4 15 -11 26 11 16 24 -12z m312 -23 c-11 -20 -131
-110 -147 -110 -5 0 -20 11 -33 25 -15 15 -26 21 -30 15 -4 -7 -16 -3 -31 10
l-24 21 32 -6 c39 -8 82 3 63 15 -7 4 -9 13 -5 19 5 8 14 4 30 -14 13 -14 33
-25 45 -25 30 0 77 27 90 50 6 11 13 20 16 20 2 0 0 -9 -6 -20z m-140 -151 c0
-5 -11 -9 -25 -9 -22 0 -24 2 -13 19 9 15 15 17 25 9 7 -6 13 -14 13 -19z"/>
<path d="M135 980 c-35 -13 -48 -36 -35 -59 14 -28 24 -26 48 6 l19 26 18 -26
c24 -37 14 -80 -34 -137 -57 -68 -64 -86 -58 -146 12 -113 112 -241 249 -316
34 -20 115 -55 178 -78 152 -57 265 -110 322 -154 l46 -35 37 29 c57 45 154
96 267 141 285 113 409 206 460 347 29 79 24 104 -37 195 -61 91 -67 122 -31
156 l24 23 17 -33 c17 -31 18 -32 31 -14 29 39 11 85 -32 85 -25 0 -83 -55
-88 -85 -2 -11 -9 -53 -15 -93 -26 -170 -128 -274 -361 -371 -144 -60 -220
-98 -253 -129 l-27 -26 -33 31 c-17 18 -111 70 -207 116 -190 92 -283 153
-330 218 -40 55 -70 140 -70 195 0 84 -54 153 -105 134z m59 -324 c47 -100 29
-154 -24 -72 -19 29 -25 52 -25 91 0 64 12 59 49 -19z m1438 -6 c16 -28 16
-31 -2 -52 -11 -13 -20 -18 -21 -10 -1 6 -2 16 -3 21 0 5 -5 13 -10 18 -5 4
-6 -3 -2 -19 3 -15 2 -30 -4 -33 -5 -3 -10 -17 -10 -29 0 -13 -8 -30 -17 -37
-15 -12 -16 -12 -9 6 4 11 10 32 13 48 3 15 10 27 15 27 5 0 6 5 3 10 -7 12
13 80 23 80 4 0 15 -13 24 -30z m-1275 -178 c3 -14 1 -27 -7 -32 -9 -6 -9 -12
0 -29 10 -20 10 -21 -9 -9 -12 7 -21 20 -21 29 0 9 -8 23 -17 30 -15 12 -16
12 -9 -6 7 -18 6 -18 -16 2 -20 19 -23 30 -20 79 l4 56 44 -48 c25 -26 47 -59
51 -72z m1165 56 c-2 -35 -8 -67 -13 -72 -6 -6 -9 -6 -9 1 0 15 -43 25 -51 11
-4 -6 -3 -21 1 -34 6 -16 4 -26 -8 -37 -16 -14 -17 -11 -17 41 0 63 15 85 53
77 17 -4 22 -1 22 15 0 15 19 60 26 60 0 0 -2 -28 -4 -62z m-137 -115 c0 -40
-5 -62 -15 -70 -24 -19 -25 -16 -24 44 1 42 6 60 20 70 10 7 18 13 18 13 1 0
1 -26 1 -57z m-819 -42 c-6 -9 15 -71 25 -71 11 0 31 48 25 59 -8 13 4 14 22
2 11 -7 10 -16 -7 -49 -37 -73 -49 -69 -91 32 l-28 65 29 -15 c16 -8 27 -19
25 -23z m696 17 c-46 -12 -41 -31 7 -23 45 7 59 -10 35 -44 -18 -25 -91 -64
-104 -56 -19 12 -10 25 16 25 29 0 64 16 64 30 0 6 -18 10 -39 10 -45 0 -59
13 -39 37 17 21 70 43 83 35 5 -3 -5 -10 -23 -14z m-844 -27 c3 -8 -1 -12 -9
-9 -7 2 -15 10 -17 17 -3 8 1 12 9 9 7 -2 15 -10 17 -17z m674 -61 c-4 -45 -3
-50 16 -50 11 0 28 7 36 16 9 8 16 12 16 7 -1 -20 -19 -33 -60 -42 -60 -14
-65 -14 -50 4 8 10 11 32 8 60 -5 39 -3 44 16 48 11 2 21 5 22 6 1 0 -1 -21
-4 -49z m-106 -25 c9 -25 21 -45 25 -45 5 0 9 -4 9 -10 0 -5 -13 -10 -30 -10
-22 0 -28 4 -24 15 5 11 -1 15 -24 15 -32 0 -51 -15 -30 -23 7 -3 1 -6 -14 -6
l-27 -1 24 36 c13 19 27 44 30 55 12 35 42 22 61 -26z m-305 -28 c-1 -12 -15
-9 -19 4 -3 6 1 10 8 8 6 -3 11 -8 11 -12z"/>
<path d="M169 660 c-7 -33 3 -72 19 -78 16 -5 15 34 -2 73 l-13 30 -4 -25z"/>
<path d="M287 516 c6 -28 30 -53 40 -42 9 9 -17 58 -33 63 -7 2 -10 -6 -7 -21z"/>
<path d="M930 270 c0 -13 5 -18 14 -14 8 3 12 12 9 20 -8 21 -23 17 -23 -6z"/>
<path d="M147 895 c-7 -16 8 -29 23 -20 15 9 12 35 -4 35 -8 0 -16 -7 -19 -15z"/>
<path d="M1585 901 c-8 -15 3 -31 21 -31 9 0 14 7 12 17 -4 20 -24 28 -33 14z"/>
<path d="M55 851 c-27 -55 -32 -90 -13 -109 20 -20 32 -13 76 47 41 57 51 78
33 67 -5 -4 -23 5 -40 19 l-30 26 -26 -50z"/>
<path d="M1658 875 c-10 -13 -27 -25 -39 -27 -19 -3 -17 -7 21 -60 45 -64 62
-70 85 -34 14 22 14 28 -11 85 -15 33 -29 61 -33 61 -3 0 -14 -11 -23 -25z"/>
</g>
</svg>
